<?xml version="1.0" encoding="UTF-8"?>
<svg width="433px" height="191px" viewBox="0 0 433 191" version="1.1" xmlns="http://www.w3.org/2000/svg" xmlns:xlink="http://www.w3.org/1999/xlink">
    <!-- Generator: Sketch 50.2 (55047) - http://www.bohemiancoding.com/sketch -->
    <title>Group 19</title>
    <desc>Created with Sketch.</desc>
    <defs>
        <polygon id="path-1" points="0 191.017327 432.321487 191.017327 432.321487 0.316147517 0 0.316147517"></polygon>
    </defs>
    <g id="Page-1" stroke="none" stroke-width="1" fill="none" fill-rule="evenodd">
        <g id="Artboard-1">
            <g id="Group-19" transform="translate(0.000000, -0.571000)">
                <path d="M139.375709,78.5116094 L133.866659,78.5116094 L118.982257,112.581349 L125.071557,112.581349 C130.941602,98.8031862 130.320381,100.092692 136.524845,85.6157929 C142.710484,99.9299116 142.235432,98.9105988 147.978133,112.581349 L154.260665,112.581349 L139.375709,78.5116094 Z" id="Fill-4" fill="#486A87"></path>
                <polygon id="Fill-6" fill="#486A87" points="184.885892 102.142778 166.764161 78.7528449 161.254557 78.7528449 161.254557 112.581737 167.101902 112.581737 167.101902 88.5152144 185.755713 112.581737 190.73379 112.581737 190.73379 78.7528449 184.885892 78.7528449"></polygon>
                <mask id="mask-2" fill="white">
                    <use xlink:href="#path-1"></use>
                </mask>
                <g id="Clip-9"></g>
                <polygon id="Fill-8" fill="#C2C4CA" mask="url(#mask-2)" points="198.984687 100.644538 213.289393 100.644538 213.289393 94.8940858 198.984687 94.8940858"></polygon>
                <path d="M250.970357,107.168527 L247.152225,103.302779 C245.702708,104.655957 244.236581,105.726761 242.754951,106.515746 C241.272213,107.305284 239.501012,107.700607 237.439132,107.700607 C235.827943,107.700607 234.338008,107.386121 232.968773,106.758255 C231.599539,106.129836 230.415785,105.267766 229.416958,104.1726 C228.418132,103.076881 227.64465,101.796788 227.09762,100.330107 C226.549484,98.8650869 226.274862,97.2943154 226.274862,95.6188997 C226.274862,93.9434839 226.549484,92.3810176 227.09762,90.9309469 C227.64465,89.4814299 228.418132,88.2168398 229.416958,87.1377304 C230.415785,86.0586209 231.599539,85.2043028 232.968773,84.5758835 C234.338008,83.9480179 235.827943,83.6335314 237.439132,83.6335314 C239.372006,83.6335314 241.095592,84.0205491 242.609335,84.7934772 C244.124185,85.5669589 245.558199,86.5818423 246.910823,87.8375736 L250.728402,83.440853 C249.922807,82.6673713 249.069042,81.9586693 248.167662,81.3141934 C247.265174,80.6702713 246.282404,80.1143832 245.219351,79.6465291 C244.155745,79.1797824 242.988047,78.8171264 241.71626,78.5596682 C240.442811,78.3022101 239.033158,78.1732042 237.486748,78.1732042 C234.909952,78.1732042 232.557948,78.6316458 230.431842,79.55019 C228.304629,80.4687341 226.468647,81.7250191 224.922791,83.3195985 C223.375828,84.9147316 222.176018,86.7750743 221.322253,88.9011802 C220.467935,91.0278398 220.041607,93.2990081 220.041607,95.7152388 C220.041607,98.1635827 220.47624,100.451361 221.346061,102.578021 C222.215882,104.704127 223.416246,106.548413 224.946599,108.110879 C226.476953,109.673346 228.289126,110.905823 230.383118,111.807757 C232.477665,112.710244 234.76489,113.160934 237.2459,113.160934 C238.824423,113.160934 240.265635,113.024177 241.570643,112.750109 C242.875652,112.476594 244.075462,112.07352 245.170628,111.541993 C246.266348,111.009913 247.289536,110.382601 248.23964,109.657843 C249.190297,108.933084 250.099982,108.102574 250.970357,107.168527" id="Fill-10" fill="#404040" mask="url(#mask-2)"></path>
                <path d="M285.075919,95.7152388 C285.075919,97.3585415 284.793546,98.9127028 284.229906,100.37883 C283.665713,101.844957 282.88448,103.117299 281.886207,104.196408 C280.88738,105.276071 279.687016,106.129836 278.285669,106.758255 C276.883767,107.386121 275.345663,107.700607 273.670247,107.700607 C271.994831,107.700607 270.448975,107.378369 269.031017,106.733893 C267.614167,106.089418 266.397747,105.219597 265.382863,104.123877 C264.36798,103.028711 263.578442,101.747511 263.014249,100.282491 C262.450609,98.8163636 262.168789,97.2616487 262.168789,95.6188997 C262.168789,93.975597 262.450609,92.4214357 263.014249,90.9553085 C263.578442,89.4891813 264.360229,88.2173935 265.358502,87.1377304 C266.356775,86.0586209 267.557139,85.2043028 268.95904,84.5758835 C270.359834,83.9480179 271.898492,83.6335314 273.574461,83.6335314 C275.249324,83.6335314 276.79518,83.956323 278.213137,84.6002451 C279.630541,85.244721 280.846408,86.1150956 281.861291,87.2102616 C282.876175,88.3054276 283.665713,89.5860742 284.229906,91.0522014 C284.793546,92.5177749 285.075919,94.0724898 285.075919,95.7152388 M291.309728,95.6188997 C291.309728,93.234782 290.875095,90.9796702 290.00472,88.8530106 C289.134899,86.7269047 287.92623,84.8743135 286.380374,83.2957906 C284.833964,81.7172677 282.981373,80.4687341 280.8226,79.55019 C278.664381,78.6321994 276.27971,78.1732042 273.670247,78.1732042 C271.060784,78.1732042 268.676666,78.6405045 266.517894,79.5745516 C264.360229,80.5085986 262.491027,81.7737424 260.911951,83.3683218 C259.333981,84.9629012 258.109256,86.8232439 257.239989,88.9499034 C256.36906,91.0760093 255.934427,93.3311211 255.934427,95.7152388 C255.934427,98.0993565 256.36906,100.354468 257.239989,102.481128 C258.109256,104.607234 259.317925,106.460379 260.863781,108.038348 C262.410191,109.617425 264.262782,110.865404 266.421555,111.783949 C268.580327,112.701939 270.964445,113.160934 273.574461,113.160934 C276.183371,113.160934 278.567488,112.694188 280.726815,111.760141 C282.88448,110.82554 284.753128,109.560396 286.332204,107.965817 C287.910727,106.371237 289.134899,104.510895 290.00472,102.384235 C290.875095,100.258129 291.309728,98.0030174 291.309728,95.6188997" id="Fill-11" fill="#404040" mask="url(#mask-2)"></path>
                <path d="M324.06178,95.7152388 C324.06178,97.3906546 323.779407,98.929313 323.216321,100.330107 C322.652128,101.732008 321.86259,102.940123 320.847706,103.955007 C319.833377,104.96989 318.6009,105.759428 317.151383,106.323621 C315.700758,106.886154 314.090676,107.168527 312.318367,107.168527 L305.649371,107.168527 L305.649371,84.1656115 L312.318367,84.1656115 C314.090676,84.1656115 315.700758,84.4557364 317.151383,85.0354324 C318.6009,85.6156822 319.833377,86.4207233 320.847706,87.4516632 C321.86259,88.4826031 322.652128,89.6984699 323.216321,91.1009246 C323.779407,92.5017184 324.06178,94.0403768 324.06178,95.7152388 M330.295589,95.6188997 C330.295589,93.234782 329.860956,91.0112295 328.990581,88.9499034 C328.12076,86.88747 326.888283,85.1002122 325.294257,83.5859154 C323.699124,82.0716187 321.798364,80.8878649 319.591975,80.0335468 C317.383925,79.1797824 314.960497,78.7529002 312.318367,78.7529002 L299.705687,78.7529002 L299.705687,112.581238 L312.318367,112.581238 C314.960497,112.581238 317.383925,112.146051 319.591975,111.276784 C321.798364,110.406409 323.699124,109.21435 325.294257,107.700607 C326.888283,106.18631 328.12076,104.38964 328.990581,102.311704 C329.860956,100.234321 330.295589,98.0030174 330.295589,95.6188997" id="Fill-12" fill="#404040" mask="url(#mask-2)"></path>
                <polygon id="Fill-13" fill="#404040" mask="url(#mask-2)" points="338.691382 92.864153 338.691382 112.58157 364.014743 112.58157 364.014743 107.265752 344.63562 107.265752 344.63562 98.1799714 361.597959 98.1799714 361.597959 92.864153 354.776148 92.864153 344.63562 92.864153"></polygon>
                <polygon id="Fill-14" fill="#C2C4CA" mask="url(#mask-2)" points="363.772677 78.7530663 338.691271 78.7530663 338.691271 84.0688848 344.636063 84.0688848 354.776038 84.0688848 363.772677 84.0688848"></polygon>
                <path d="M393.866765,89.8197797 C393.866765,91.5594216 393.238899,92.9447125 391.98206,93.9756524 C390.725775,95.0065922 389.033749,95.5226159 386.908197,95.5226159 L378.209434,95.5226159 L378.209434,84.1656669 L386.859474,84.1656669 C389.082473,84.1656669 390.806612,84.6407187 392.030784,85.5908222 C393.255509,86.5420331 393.866765,87.951132 393.866765,89.8197797 Z M400.970948,112.581294 L391.836998,99.774274 C393.029057,99.4525897 394.116471,98.9930408 395.099242,98.3972882 C396.082012,97.8015356 396.926918,97.0762235 397.636727,96.2224591 C398.345429,95.3686947 398.901317,94.386478 399.303284,93.2752555 C399.706358,92.1634793 399.907895,90.8994429 399.907895,89.4814853 C399.907895,87.8376289 399.618324,86.3482475 399.038074,85.0111262 C398.458378,83.6740049 397.628422,82.5461721 396.549312,81.6287353 C395.469649,80.7101911 394.149138,80.0014892 392.586672,79.5020757 C391.023652,79.003216 389.276258,78.7529556 387.342831,78.7529556 L372.265197,78.7529556 L372.265197,112.581294 L378.209434,112.581294 L378.209434,100.789157 L385.651359,100.789157 L393.964211,112.581294 L400.970948,112.581294 Z" id="Fill-15" fill="#404040" mask="url(#mask-2)"></path>
                <path d="M413.425942,87.5966703 C413.425942,86.4693912 413.909299,85.5104288 414.875459,84.7208906 C415.842173,83.931906 417.195351,83.5371368 418.934439,83.5371368 C420.481403,83.5371368 422.011756,83.8350131 423.526053,84.4307657 C425.040903,85.0276256 426.570703,85.8896951 428.116559,87.0169742 L431.306271,82.5222535 C429.56663,81.1369626 427.706287,80.0816611 425.72469,79.3569026 C423.743646,78.6321441 421.512342,78.269488 419.031886,78.269488 C417.35647,78.269488 415.81006,78.5036918 414.392656,78.9704385 C412.975252,79.4377389 411.758278,80.1060227 410.743395,80.9758436 C409.728511,81.8462182 408.931775,82.8849095 408.351526,84.0930249 C407.771276,85.3011403 407.481705,86.6465667 407.481705,88.1276431 C407.481705,89.7067196 407.731965,91.0443946 408.230825,92.1395606 C408.730792,93.2347266 409.454997,94.1693273 410.405654,94.9428091 C411.356311,95.7151835 412.53176,96.3596593 413.933107,96.8751293 C415.335008,97.3905992 416.937893,97.8584532 418.742314,98.2770303 C420.320837,98.6634944 421.60093,99.0339019 422.583701,99.3882529 C423.565917,99.7426039 424.339399,100.121316 424.903038,100.523837 C425.467232,100.926358 425.853696,101.369296 426.062984,101.853207 C426.272826,102.336564 426.377471,102.884147 426.377471,103.495956 C426.377471,104.817021 425.837639,105.864017 424.75853,106.636945 C423.67942,107.410427 422.221598,107.796891 420.38451,107.796891 C418.258404,107.796891 416.357643,107.418178 414.682781,106.660753 C413.007365,105.903882 411.348006,104.817021 409.704703,103.399617 L406.128527,107.651829 C408.158293,109.488363 410.365236,110.849846 412.749353,111.73517 C415.133471,112.622155 417.629985,113.065093 420.240001,113.065093 C422.011756,113.065093 423.638448,112.839195 425.121186,112.387397 C426.602816,111.936707 427.875711,111.276728 428.939318,110.406354 C430.001263,109.536533 430.831773,108.47348 431.427526,107.217195 C432.023279,105.960356 432.321155,104.527449 432.321155,102.915706 C432.321155,101.498302 432.088058,100.265825 431.620758,99.2193825 C431.153458,98.1718324 430.469117,97.2538419 429.56663,96.4648573 C428.664696,95.675319 427.529111,95.0064815 426.159877,94.4588985 C424.790089,93.9107618 423.219871,93.4113484 421.447563,92.9606583 C419.836927,92.5741942 418.508664,92.2037867 417.461114,91.8494357 C416.414118,91.4950847 415.592466,91.1086207 414.996714,90.6894899 C414.400961,90.2709128 413.990136,89.819669 413.763683,89.3363121 C413.538338,88.8535089 413.425942,88.2727055 413.425942,87.5966703" id="Fill-16" fill="#404040" mask="url(#mask-2)"></path>
                <polygon id="Fill-17" fill="#C2C4CA" mask="url(#mask-2)" points="185.07785 5.93958688 185.07785 73.9987835 190.700958 73.9987835 190.700958 0.316479721 0.000332204046 0.316479721 0.000332204046 191.017105 190.700958 191.017105 190.700958 117.334801 185.07785 117.334801 185.07785 185.393998 5.62343936 185.393998 5.62343936 5.93958688"></polygon>
                <path d="M425.333187,123.753869 C425.425651,123.03797 425.682555,122.457166 426.104454,122.012013 C426.5258,121.567967 427.060095,121.34539 427.706785,121.34539 C428.053938,121.34539 428.363442,121.409062 428.634742,121.535854 C428.905488,121.662645 429.139692,121.833176 429.336246,122.046894 C429.532246,122.261166 429.688936,122.515302 429.8041,122.809303 C429.919264,123.103857 429.995117,123.419451 430.029445,123.753869 L425.333187,123.753869 Z M425.350351,125.140268 L432.074161,125.140268 C432.085235,125.036177 432.094647,124.938177 432.100737,124.845713 C432.106274,124.75325 432.108489,124.660786 432.108489,124.568877 C432.108489,123.909452 432.016579,123.280479 431.831652,122.679743 C431.646172,122.079007 431.372657,121.553018 431.00834,121.102881 C430.644576,120.651637 430.188349,120.293964 429.639659,120.028201 C429.090415,119.762438 428.452583,119.63011 427.724503,119.63011 C427.066185,119.63011 426.466003,119.756901 425.921742,120.011037 C425.379696,120.26462 424.90852,120.608451 424.510429,121.041977 C424.111784,121.475503 423.80228,121.981007 423.583579,122.558488 C423.363217,123.13597 423.25359,123.753869 423.25359,124.412187 C423.25359,125.12864 423.374844,125.778653 423.617353,126.362225 C423.86097,126.945797 424.192066,127.444656 424.613966,127.861019 C425.035865,128.276827 425.531956,128.600173 426.104454,128.831055 C426.676399,129.06249 427.29153,129.177654 427.949848,129.177654 C428.793646,129.177654 429.518405,129.022072 430.124677,128.710354 C430.730949,128.398082 431.253617,127.98172 431.69268,127.462374 L430.462971,126.371084 C430.093118,126.728757 429.717727,127.000057 429.336246,127.184984 C428.954765,127.36991 428.504629,127.462374 427.984729,127.462374 C427.303157,127.462374 426.725676,127.263605 426.251732,126.864407 C425.778341,126.465762 425.477696,125.891049 425.350351,125.140268 Z M419.440995,121.622227 L421.902073,121.622227 L421.902073,119.820573 L419.440995,119.820573 L419.440995,117.30745 L417.34368,117.30745 L417.34368,119.820573 L416.183181,119.820573 L416.183181,121.622227 L417.34368,121.622227 L417.34368,126.439739 C417.34368,126.948565 417.40846,127.372679 417.534697,127.713742 C417.662596,128.054804 417.844201,128.328873 418.080619,128.537054 C418.317592,128.744682 418.59775,128.894727 418.921096,128.98719 C419.244995,129.079654 419.597131,129.125609 419.978058,129.125609 C420.371166,129.125609 420.717766,129.085191 421.01841,129.004354 C421.318501,128.923518 421.601429,128.808354 421.866638,128.657755 L421.866638,126.942475 C421.451383,127.150656 421.01841,127.254193 420.567167,127.254193 C420.209494,127.254193 419.93155,127.164498 419.736103,126.986215 C419.538995,126.806825 419.440995,126.515039 419.440995,126.110857 L419.440995,121.622227 Z M414.953472,126.266993 L414.953472,126.232112 C414.953472,125.815749 414.866545,125.463613 414.693245,125.174595 C414.519946,124.886132 414.296815,124.640854 414.026069,124.43821 C413.754769,124.236673 413.451356,124.065588 413.116384,123.926615 C412.781411,123.788197 412.446439,123.667496 412.110913,123.563406 C411.846257,123.482569 411.588799,123.398411 411.340199,123.312038 C411.0916,123.225665 410.872345,123.133201 410.681328,123.034648 C410.490864,122.936647 410.337497,122.826466 410.222333,122.705766 C410.106615,122.584511 410.049033,122.442771 410.049033,122.281098 L410.049033,122.246217 C410.049033,121.981007 410.162536,121.760645 410.386774,121.587899 C410.612119,121.414046 410.926605,121.327673 411.33134,121.327673 C411.712268,121.327673 412.128076,121.406294 412.57932,121.561876 C413.029457,121.717459 413.474057,121.928962 413.91312,122.194725 L414.745291,120.703683 C414.260273,120.380891 413.72321,120.126201 413.133547,119.941274 C412.544439,119.756901 411.961421,119.664438 411.383939,119.664438 C410.933249,119.664438 410.508582,119.72811 410.109383,119.855455 C409.710738,119.982246 409.364692,120.166619 409.070138,120.409682 C408.775584,120.651637 408.544702,120.946745 408.376939,121.293898 C408.209176,121.640498 408.125571,122.026962 408.125571,122.454398 L408.125571,122.488726 C408.125571,122.927789 408.212498,123.294874 408.385798,123.589428 C408.558544,123.883429 408.781121,124.132028 409.053528,124.334673 C409.324274,124.536764 409.630456,124.701205 409.971519,124.827996 C410.312028,124.955894 410.649768,125.071058 410.984741,125.174595 C411.250504,125.255985 411.507962,125.3335 411.756562,125.408799 C412.004607,125.484099 412.223308,125.570472 412.414326,125.668472 C412.605343,125.767026 412.754835,125.879975 412.865016,126.006213 C412.975197,126.134111 413.029457,126.283603 413.029457,126.457457 L413.029457,126.491784 C413.029457,126.791875 412.905988,127.03217 412.656835,127.210452 C412.408235,127.389843 412.058867,127.479538 411.609284,127.479538 C411.134786,127.479538 410.641463,127.384306 410.127101,127.193842 C409.612738,127.002825 409.107788,126.722666 408.610589,126.353366 L407.674881,127.774092 C408.252363,128.224782 408.879675,128.565845 409.555156,128.796173 C410.231191,129.027055 410.898368,129.143326 411.556686,129.143326 C412.03063,129.143326 412.47523,129.082422 412.890485,128.961168 C413.306847,128.839913 413.667842,128.661077 413.974024,128.424658 C414.280205,128.187686 414.519946,127.890363 414.693245,127.531583 C414.866545,127.17391 414.953472,126.752011 414.953472,126.266993 Z M403.897721,125.659613 C403.897721,125.948631 403.836817,126.211626 403.715563,126.448598 C403.593755,126.68557 403.42433,126.887661 403.203968,127.05487 C402.985267,127.222633 402.727809,127.352193 402.433255,127.444656 C402.138701,127.53712 401.818124,127.583628 401.470971,127.583628 C400.974879,127.583628 400.555749,127.467911 400.215239,127.237029 C399.87473,127.006147 399.704199,126.671175 399.704199,126.232112 L399.704199,126.196676 C399.704199,125.724393 399.888572,125.359522 400.258426,125.105386 C400.62828,124.850696 401.142089,124.724459 401.80096,124.724459 C402.205695,124.724459 402.589391,124.758787 402.953154,124.827996 C403.316918,124.897205 403.631958,124.984132 403.897721,125.088222 L403.897721,125.659613 Z M405.925273,128.970027 L405.925273,123.545688 C405.925273,122.321516 405.595838,121.370859 404.936966,120.695377 C404.279202,120.019342 403.267641,119.682155 401.904497,119.682155 C401.153716,119.682155 400.512562,119.750811 399.981036,119.889783 C399.449509,120.028201 398.930163,120.213128 398.421891,120.44401 L398.993836,122.124962 C399.409091,121.951662 399.819363,121.81269 400.223544,121.709153 C400.62828,121.605063 401.090043,121.553018 401.609943,121.553018 C402.338023,121.553018 402.895572,121.720227 403.28259,122.055753 C403.669054,122.390725 403.86284,122.875743 403.86284,123.511914 L403.86284,123.736706 C403.505167,123.620988 403.131991,123.528524 402.744973,123.459869 C402.358509,123.390106 401.887333,123.355225 401.332552,123.355225 C400.801026,123.355225 400.307703,123.416682 399.851476,123.536829 C399.394695,123.658638 399.002141,123.840242 398.673259,124.082751 C398.34327,124.325814 398.086365,124.631995 397.901438,125.001849 C397.717065,125.371149 397.624048,125.804676 397.624048,126.301874 L397.624048,126.335649 C397.624048,126.797966 397.713743,127.204916 397.893133,127.557606 C398.072523,127.910296 398.308942,128.204296 398.60405,128.441268 C398.89805,128.678241 399.241882,128.857631 399.63499,128.978885 C400.027544,129.099586 400.443353,129.161044 400.882416,129.161044 C401.575615,129.161044 402.164723,129.033145 402.649741,128.779009 C403.134759,128.525427 403.533404,128.213155 403.845676,127.843855 L403.845676,128.970027 L405.925273,128.970027 Z M390.710328,119.785138 L388.925285,119.785138 L386.897733,126.093693 L385.061198,119.820573 L382.912945,119.820573 L385.875098,129.038682 L387.747068,129.038682 L389.809501,122.78328 L391.853664,129.038682 L393.72508,129.038682 L396.723221,119.820573 L394.62646,119.820573 L392.755044,126.093693 L390.710328,119.785138 Z M373.900803,121.622227 L376.361882,121.622227 L376.361882,119.820573 L373.900803,119.820573 L373.900803,117.30745 L371.804042,117.30745 L371.804042,119.820573 L370.643543,119.820573 L370.643543,121.622227 L371.804042,121.622227 L371.804042,126.439739 C371.804042,126.948565 371.868268,127.372679 371.994506,127.713742 C372.122404,128.054804 372.304563,128.328873 372.540428,128.537054 C372.777954,128.744682 373.057559,128.894727 373.380904,128.98719 C373.704803,129.079654 374.056939,129.125609 374.437866,129.125609 C374.830975,129.125609 375.177574,129.085191 375.478219,129.004354 C375.77831,128.923518 376.061791,128.808354 376.327,128.657755 L376.327,126.942475 C375.911191,127.150656 375.478219,127.254193 375.027529,127.254193 C374.669302,127.254193 374.391912,127.164498 374.195911,126.986215 C373.999357,126.806825 373.900803,126.515039 373.900803,126.110857 L373.900803,121.622227 Z M366.63993,124.984132 C366.63993,125.700585 366.449466,126.257581 366.068539,126.656225 C365.687058,127.05487 365.190413,127.254193 364.578604,127.254193 C363.954614,127.254193 363.471811,127.060961 363.131302,126.673389 C362.790239,126.286372 362.620261,125.735467 362.620261,125.019013 L362.620261,119.820573 L360.522946,119.820573 L360.522946,125.643003 C360.522946,126.717129 360.806427,127.572001 361.372281,128.207618 C361.938689,128.842128 362.740962,129.161044 363.781314,129.161044 C364.486141,129.161044 365.063622,129.00214 365.514312,128.683777 C365.964449,128.365969 366.339839,127.98781 366.63993,127.548747 L366.63993,128.970027 L368.737245,128.970027 L368.737245,119.820573 L366.63993,119.820573 L366.63993,124.984132 Z M356.398633,124.429905 C356.398633,124.834086 356.335514,125.212799 356.208169,125.564935 C356.080824,125.917071 355.896451,126.226575 355.653942,126.491784 C355.411433,126.757548 355.119094,126.968497 354.778031,127.124633 C354.437522,127.280215 354.053826,127.358837 353.625837,127.358837 C353.221655,127.358837 352.849033,127.280215 352.508524,127.124633 C352.167461,126.968497 351.872907,126.757548 351.624861,126.491784 C351.376815,126.226575 351.18303,125.910981 351.044611,125.547218 C350.905639,125.183454 350.835876,124.799205 350.835876,124.395023 C350.835876,123.991395 350.899549,123.612683 351.026894,123.259439 C351.153685,122.907856 351.338612,122.598907 351.581674,122.333143 C351.82363,122.06738 352.115969,121.856431 352.456478,121.700295 C352.796987,121.544712 353.1757,121.466645 353.592063,121.466645 C354.007318,121.466645 354.385477,121.544712 354.726539,121.700295 C355.067602,121.856431 355.362156,122.070702 355.610202,122.341449 C355.858801,122.612748 356.052033,122.927789 356.191006,123.286015 C356.329424,123.644242 356.398633,124.025169 356.398633,124.429905 Z M358.495948,124.395023 C358.495948,123.736706 358.37414,123.118806 358.131631,122.540771 C357.888568,121.96329 357.550827,121.458339 357.117855,121.024259 C356.684882,120.591287 356.17052,120.250778 355.575874,120.002732 C354.981229,119.753579 354.331217,119.63011 353.625837,119.63011 C352.922118,119.63011 352.271551,119.756901 351.676906,120.011037 C351.082261,120.26462 350.567898,120.608451 350.134926,121.041977 C349.700846,121.475503 349.360337,121.983775 349.112291,122.566794 C348.864245,123.150365 348.739669,123.771033 348.739669,124.429905 C348.739669,125.088222 348.860923,125.703353 349.102879,126.275298 C349.346495,126.847243 349.684236,127.349425 350.117208,127.782397 C350.550734,128.216477 351.06399,128.556986 351.659742,128.805586 C352.254388,129.053631 352.89831,129.177654 353.592063,129.177654 C354.295781,129.177654 354.949116,129.050863 355.549298,128.796173 C356.150587,128.542037 356.667165,128.19876 357.101245,127.765233 C357.534217,127.332261 357.874726,126.826757 358.122772,126.249275 C358.371925,125.67124 358.495948,125.053895 358.495948,124.395023 Z M340.595133,123.806468 C340.595133,123.090015 340.78615,122.532466 341.167078,122.133267 C341.548558,121.735176 342.04465,121.535854 342.657566,121.535854 C343.281556,121.535854 343.763252,121.729639 344.104315,122.116657 C344.444824,122.503675 344.615356,123.05458 344.615356,123.771033 L344.615356,128.970027 L346.712117,128.970027 L346.712117,123.147043 C346.712117,122.073471 346.428636,121.218599 345.862782,120.582982 C345.296927,119.947918 344.494101,119.63011 343.454302,119.63011 C343.096629,119.63011 342.776052,119.673296 342.492572,119.759669 C342.209091,119.846042 341.949418,119.964529 341.712999,120.115128 C341.476027,120.26462 341.267846,120.435705 341.08901,120.626722 C340.909619,120.816632 340.745178,121.021491 340.595133,121.240746 L340.595133,116.319697 L338.497818,116.319697 L338.497818,128.970027 L340.595133,128.970027 L340.595133,123.806468 Z M333.923368,121.622227 L336.383893,121.622227 L336.383893,119.820573 L333.923368,119.820573 L333.923368,117.30745 L331.826053,117.30745 L331.826053,119.820573 L330.665554,119.820573 L330.665554,121.622227 L331.826053,121.622227 L331.826053,126.439739 C331.826053,126.948565 331.889726,127.372679 332.017071,127.713742 C332.143862,128.054804 332.326574,128.328873 332.562993,128.537054 C332.799965,128.744682 333.080124,128.894727 333.403469,128.98719 C333.726814,129.079654 334.079504,129.125609 334.460431,129.125609 C334.852986,129.125609 335.199585,129.085191 335.50023,129.004354 C335.800875,128.923518 336.083802,128.808354 336.349011,128.657755 L336.349011,126.942475 C335.933756,127.150656 335.50023,127.254193 335.050094,127.254193 C334.691867,127.254193 334.413923,127.164498 334.217923,126.986215 C334.021368,126.806825 333.923368,126.515039 333.923368,126.110857 L333.923368,121.622227 Z M326.558958,128.970027 L328.655166,128.970027 L328.655166,119.820573 L326.558958,119.820573 L326.558958,128.970027 Z M326.472585,118.417011 L328.724929,118.417011 L328.724929,116.423787 L326.472585,116.423787 L326.472585,118.417011 Z M318.552841,119.785138 L316.767244,119.785138 L314.740246,126.093693 L312.903157,119.820573 L310.754904,119.820573 L313.717611,129.038682 L315.589581,129.038682 L317.65146,122.78328 L319.696176,129.038682 L321.567592,129.038682 L324.565734,119.820573 L322.468973,119.820573 L320.597557,126.093693 L318.552841,119.785138 Z M297.428539,123.753869 C297.521556,123.03797 297.778461,122.457166 298.20036,122.012013 C298.622259,121.567967 299.156,121.34539 299.802691,121.34539 C300.149844,121.34539 300.458794,121.409062 300.730094,121.535854 C301.001394,121.662645 301.235597,121.833176 301.432152,122.046894 C301.628152,122.261166 301.784288,122.515302 301.900006,122.809303 C302.01517,123.103857 302.090469,123.419451 302.125351,123.753869 L297.428539,123.753869 Z M297.446257,125.140268 L304.169513,125.140268 C304.181694,125.036177 304.190552,124.938177 304.196089,124.845713 C304.20218,124.75325 304.204948,124.660786 304.204948,124.568877 C304.204948,123.909452 304.112485,123.280479 303.927558,122.679743 C303.742631,122.079007 303.468009,121.553018 303.104245,121.102881 C302.739928,120.651637 302.284255,120.293964 301.735565,120.028201 C301.186321,119.762438 300.548489,119.63011 299.820962,119.63011 C299.161537,119.63011 298.561355,119.756901 298.018201,120.011037 C297.475048,120.26462 297.004425,120.608451 296.60578,121.041977 C296.207689,121.475503 295.898186,121.981007 295.678931,122.558488 C295.459676,123.13597 295.349495,123.753869 295.349495,124.412187 C295.349495,125.12864 295.47075,125.778653 295.713259,126.362225 C295.956322,126.945797 296.287972,127.444656 296.709871,127.861019 C297.131216,128.276827 297.628415,128.600173 298.20036,128.831055 C298.772304,129.06249 299.386882,129.177654 300.045753,129.177654 C300.888998,129.177654 301.613756,129.022072 302.221136,128.710354 C302.826855,128.398082 303.350076,127.98172 303.788586,127.462374 L302.558877,126.371084 C302.189023,126.728757 301.813079,127.000057 301.432152,127.184984 C301.050671,127.36991 300.600534,127.462374 300.080081,127.462374 C299.399063,127.462374 298.821028,127.263605 298.347083,126.864407 C297.873693,126.465762 297.573602,125.891049 297.446257,125.140268 Z M291.121645,124.984132 C291.121645,125.700585 290.930628,126.257581 290.549147,126.656225 C290.16822,127.05487 289.671575,127.254193 289.058658,127.254193 C288.435222,127.254193 287.952972,127.060961 287.612463,126.673389 C287.271954,126.286372 287.101423,125.735467 287.101423,125.019013 L287.101423,119.820573 L285.004661,119.820573 L285.004661,125.643003 C285.004661,126.717129 285.287589,127.572001 285.853443,128.207618 C286.419851,128.842128 287.222677,129.161044 288.262476,129.161044 C288.967302,129.161044 289.544783,129.00214 289.99492,128.683777 C290.44561,128.365969 290.821554,127.98781 291.121645,127.548747 L291.121645,128.970027 L293.218406,128.970027 L293.218406,119.820573 L291.121645,119.820573 L291.121645,124.984132 Z M280.273522,128.970027 L282.370283,128.970027 L282.370283,116.319697 L280.273522,116.319697 L280.273522,128.970027 Z M275.629863,125.659613 C275.629863,125.948631 275.568959,126.211626 275.447705,126.448598 C275.325897,126.68557 275.156473,126.887661 274.93611,127.05487 C274.717409,127.222633 274.459951,127.352193 274.165397,127.444656 C273.870289,127.53712 273.550266,127.583628 273.203113,127.583628 C272.707021,127.583628 272.287891,127.467911 271.947381,127.237029 C271.606872,127.006147 271.436341,126.671175 271.436341,126.232112 L271.436341,126.196676 C271.436341,125.724393 271.620714,125.359522 271.990568,125.105386 C272.360422,124.850696 272.874231,124.724459 273.532548,124.724459 C273.937284,124.724459 274.321533,124.758787 274.685296,124.827996 C275.04906,124.897205 275.3641,124.984132 275.629863,125.088222 L275.629863,125.659613 Z M277.656862,128.970027 L277.656862,123.545688 C277.656862,122.321516 277.32798,121.370859 276.669108,120.695377 C276.011344,120.019342 275.000337,119.682155 273.637193,119.682155 C272.886412,119.682155 272.244704,119.750811 271.713178,119.889783 C271.182205,120.028201 270.662305,120.213128 270.154033,120.44401 L270.725978,122.124962 C271.141233,121.951662 271.551505,121.81269 271.955687,121.709153 C272.360422,121.605063 272.822185,121.553018 273.342085,121.553018 C274.070165,121.553018 274.627714,121.720227 275.014732,122.055753 C275.401196,122.390725 275.595536,122.875743 275.595536,123.511914 L275.595536,123.736706 C275.237309,123.620988 274.864133,123.528524 274.477115,123.459869 C274.090651,123.390106 273.619475,123.355225 273.064694,123.355225 C272.533168,123.355225 272.039845,123.416682 271.583618,123.536829 C271.126837,123.658638 270.734283,123.840242 270.405401,124.082751 C270.075965,124.325814 269.819061,124.631995 269.63358,125.001849 C269.448653,125.371149 269.35619,125.804676 269.35619,126.301874 L269.35619,126.335649 C269.35619,126.797966 269.445885,127.204916 269.625275,127.557606 C269.804665,127.910296 270.041084,128.204296 270.336192,128.441268 C270.630746,128.678241 270.974024,128.857631 271.366578,128.978885 C271.759686,129.099586 272.175495,129.161044 272.614558,129.161044 C273.307757,129.161044 273.896865,129.033145 274.381883,128.779009 C274.867455,128.525427 275.265546,128.213155 275.577818,127.843855 L275.577818,128.970027 L277.656862,128.970027 Z M263.949569,126.54383 L261.489598,119.820573 L259.236701,119.820573 L262.997251,129.038682 L264.885831,129.038682 L268.629217,119.820573 L266.428365,119.820573 L263.949569,126.54383 Z M246.01498,123.753869 C246.107997,123.03797 246.364348,122.457166 246.786247,122.012013 C247.208146,121.567967 247.742441,121.34539 248.389131,121.34539 C248.736285,121.34539 249.045234,121.409062 249.316534,121.535854 C249.587834,121.662645 249.821485,121.833176 250.018039,122.046894 C250.214593,122.261166 250.370729,122.515302 250.485893,122.809303 C250.601057,123.103857 250.67691,123.419451 250.711238,123.753869 L246.01498,123.753869 Z M246.032144,125.140268 L252.755954,125.140268 C252.767581,125.036177 252.776993,124.938177 252.78253,124.845713 C252.787513,124.75325 252.790835,124.660786 252.790835,124.568877 C252.790835,123.909452 252.698372,123.280479 252.513445,122.679743 C252.328518,122.079007 252.054449,121.553018 251.690132,121.102881 C251.326369,120.651637 250.870142,120.293964 250.321452,120.028201 C249.772761,119.762438 249.134376,119.63011 248.406849,119.63011 C247.747978,119.63011 247.147796,119.756901 246.604088,120.011037 C246.061488,120.26462 245.590312,120.608451 245.192221,121.041977 C244.793576,121.475503 244.484073,121.981007 244.265372,122.558488 C244.04501,123.13597 243.935936,123.753869 243.935936,124.412187 C243.935936,125.12864 244.056637,125.778653 244.299146,126.362225 C244.542762,126.945797 244.873859,127.444656 245.295758,127.861019 C245.717657,128.276827 246.214302,128.600173 246.786247,128.831055 C247.358192,129.06249 247.973323,129.177654 248.631087,129.177654 C249.475439,129.177654 250.199644,129.022072 250.80647,128.710354 C251.413296,128.398082 251.93541,127.98172 252.374473,127.462374 L251.144764,126.371084 C250.77491,126.728757 250.39952,127.000057 250.018039,127.184984 C249.636558,127.36991 249.185868,127.462374 248.666522,127.462374 C247.984396,127.462374 247.407469,127.263605 246.933524,126.864407 C246.460133,126.465762 246.160042,125.891049 246.032144,125.140268 Z M240.122787,121.622227 L242.583866,121.622227 L242.583866,119.820573 L240.122787,119.820573 L240.122787,117.30745 L238.026026,117.30745 L238.026026,119.820573 L236.864419,119.820573 L236.864419,121.622227 L238.026026,121.622227 L238.026026,126.439739 C238.026026,126.948565 238.089699,127.372679 238.21649,127.713742 C238.343835,128.054804 238.52544,128.328873 238.762966,128.537054 C238.999938,128.744682 239.279543,128.894727 239.603442,128.98719 C239.926787,129.079654 240.278923,129.125609 240.659851,129.125609 C241.052959,129.125609 241.399005,129.085191 241.700203,129.004354 C242.000294,128.923518 242.283775,128.808354 242.548431,128.657755 L242.548431,126.942475 C242.133176,127.150656 241.700203,127.254193 241.248959,127.254193 C240.891286,127.254193 240.613896,127.164498 240.417342,126.986215 C240.221341,126.806825 240.122787,126.515039 240.122787,126.110857 L240.122787,121.622227 Z M233.157022,125.659613 C233.157022,125.948631 233.096118,126.211626 232.974864,126.448598 C232.853609,126.68557 232.683632,126.887661 232.46327,127.05487 C232.244569,127.222633 231.98711,127.352193 231.692556,127.444656 C231.397448,127.53712 231.077425,127.583628 230.730825,127.583628 C230.23418,127.583628 229.81505,127.467911 229.47454,127.237029 C229.134031,127.006147 228.964054,126.671175 228.964054,126.232112 L228.964054,126.196676 C228.964054,125.724393 229.148427,125.359522 229.518281,125.105386 C229.887581,124.850696 230.401943,124.724459 231.060261,124.724459 C231.464996,124.724459 231.849246,124.758787 232.212455,124.827996 C232.576773,124.897205 232.891259,124.984132 233.157022,125.088222 L233.157022,125.659613 Z M235.184574,128.970027 L235.184574,123.545688 C235.184574,122.321516 234.855692,121.370859 234.196821,120.695377 C233.538503,120.019342 232.527496,119.682155 231.164352,119.682155 C230.413571,119.682155 229.771863,119.750811 229.240337,119.889783 C228.709364,120.028201 228.190018,120.213128 227.681192,120.44401 L228.253137,122.124962 C228.668946,121.951662 229.079218,121.81269 229.482846,121.709153 C229.887581,121.605063 230.349344,121.553018 230.869244,121.553018 C231.597324,121.553018 232.154873,121.720227 232.541891,122.055753 C232.928909,122.390725 233.122695,122.875743 233.122695,123.511914 L233.122695,123.736706 C232.764468,123.620988 232.391846,123.528524 232.004828,123.459869 C231.61781,123.390106 231.146634,123.355225 230.591853,123.355225 C230.060327,123.355225 229.567004,123.416682 229.111331,123.536829 C228.653996,123.658638 228.261442,123.840242 227.93256,124.082751 C227.603124,124.325814 227.34622,124.631995 227.161293,125.001849 C226.976366,125.371149 226.883903,125.804676 226.883903,126.301874 L226.883903,126.335649 C226.883903,126.797966 226.973598,127.204916 227.152434,127.557606 C227.331824,127.910296 227.568797,128.204296 227.863351,128.441268 C228.157905,128.678241 228.501736,128.857631 228.894291,128.978885 C229.286845,129.099586 229.702654,129.161044 230.141717,129.161044 C230.834916,129.161044 231.424025,129.033145 231.909042,128.779009 C232.394614,128.525427 232.793259,128.213155 233.104977,127.843855 L233.104977,128.970027 L235.184574,128.970027 Z M218.618112,123.753869 C218.710576,123.03797 218.96748,122.457166 219.389379,122.012013 C219.811832,121.567967 220.346127,121.34539 220.992264,121.34539 C221.339417,121.34539 221.647813,121.409062 221.919667,121.535854 C222.190967,121.662645 222.424617,121.833176 222.621171,122.046894 C222.817725,122.261166 222.974415,122.515302 223.089579,122.809303 C223.204743,123.103857 223.280042,123.419451 223.314924,123.753869 L218.618112,123.753869 Z M218.63583,125.140268 L225.359086,125.140268 C225.370713,125.036177 225.379572,124.938177 225.385662,124.845713 C225.391199,124.75325 225.394521,124.660786 225.394521,124.568877 C225.394521,123.909452 225.301504,123.280479 225.116577,122.679743 C224.93165,122.079007 224.658135,121.553018 224.293265,121.102881 C223.929501,120.651637 223.473274,120.293964 222.925138,120.028201 C222.375894,119.762438 221.737508,119.63011 221.009981,119.63011 C220.35111,119.63011 219.750374,119.756901 219.207774,120.011037 C218.664621,120.26462 218.193998,120.608451 217.795354,121.041977 C217.396709,121.475503 217.087759,121.981007 216.868504,122.558488 C216.648696,123.13597 216.539069,123.753869 216.539069,124.412187 C216.539069,125.12864 216.659769,125.778653 216.902832,126.362225 C217.145895,126.945797 217.477545,127.444656 217.899444,127.861019 C218.32079,128.276827 218.817988,128.600173 219.389379,128.831055 C219.961324,129.06249 220.577009,129.177654 221.234773,129.177654 C222.078017,129.177654 222.80333,129.022072 223.410156,128.710354 C224.015874,128.398082 224.539096,127.98172 224.978159,127.462374 L223.747896,126.371084 C223.378043,126.728757 223.002098,127.000057 222.621171,127.184984 C222.23969,127.36991 221.789553,127.462374 221.2691,127.462374 C220.588082,127.462374 220.010601,127.263605 219.53721,126.864407 C219.062712,126.465762 218.762621,125.891049 218.63583,125.140268 Z M212.292947,125.486867 C212.292947,124.886132 212.367693,124.357927 212.518292,123.9017 C212.668338,123.444366 212.882056,123.066207 213.159446,122.766116 C213.436836,122.466025 213.766272,122.24068 214.147199,122.090081 C214.528127,121.940589 214.950026,121.865289 215.412343,121.865289 L215.533598,121.865289 L215.533598,119.64672 C214.724681,119.612946 214.05529,119.802856 213.523209,120.218665 C212.991683,120.634473 212.581965,121.1887 212.292947,121.882453 L212.292947,119.820573 L210.195632,119.820573 L210.195632,128.970027 L212.292947,128.970027 L212.292947,125.486867 Z M208.272171,127.462374 L207.007581,126.214394 C206.672608,126.54992 206.31715,126.823988 205.941759,127.03826 C205.566369,127.250871 205.130628,127.358837 204.633429,127.358837 C204.229248,127.358837 203.859394,127.280215 203.524421,127.124633 C203.188895,126.968497 202.900431,126.757548 202.657922,126.491784 C202.415414,126.226575 202.227165,125.914303 202.09539,125.556076 C201.961955,125.19785 201.894961,124.810832 201.894961,124.395023 C201.894961,123.991395 201.961955,123.612683 202.09539,123.259439 C202.227165,122.907856 202.409323,122.598907 202.640205,122.333143 C202.87164,122.06738 203.149031,121.856431 203.472376,121.700295 C203.795721,121.544712 204.147858,121.466645 204.529339,121.466645 C205.060865,121.466645 205.508787,121.573503 205.871997,121.787221 C206.236867,122.000939 206.580145,122.275008 206.904044,122.610534 L208.203515,121.206418 C207.776079,120.733027 207.276112,120.351546 206.704168,120.063082 C206.132777,119.774619 205.413555,119.63011 204.547056,119.63011 C203.864931,119.63011 203.232635,119.756901 202.649064,120.011037 C202.066046,120.26462 201.56331,120.611219 201.141411,121.050282 C200.720066,121.489899 200.39063,121.997617 200.153658,122.575652 C199.916685,123.153134 199.798753,123.771033 199.798753,124.429905 C199.798753,125.088222 199.916685,125.703353 200.153658,126.275298 C200.39063,126.847243 200.720066,127.349425 201.141411,127.782397 C201.56331,128.216477 202.063277,128.556986 202.640205,128.805586 C203.21824,129.053631 203.847767,129.177654 204.529339,129.177654 C205.419092,129.177654 206.152709,129.019304 206.73019,128.700941 C207.307672,128.383686 207.822034,127.970646 208.272171,127.462374 Z" id="Fill-18" fill="#C2C4CA" mask="url(#mask-2)"></path>
                <polygon id="Fill-1" fill="#486A87" mask="url(#mask-2)" points="57.1992803 112.58146 80.9275079 112.58146 80.9275079 107.168748 63.143518 107.168748 63.143518 78.7531217 57.1992803 78.7531217"></polygon>
                <polygon id="Fill-2" fill="#486A87" mask="url(#mask-2)" points="88.3082513 92.864153 88.3082513 112.58157 113.631612 112.58157 113.631612 107.265752 94.2524891 107.265752 94.2524891 98.1799714 111.214828 98.1799714 111.214828 92.864153 104.033684 92.864153 94.2524891 92.864153"></polygon>
                <polygon id="Fill-3" fill="#C2C4CA" mask="url(#mask-2)" points="113.389269 78.7530663 88.3084174 78.7530663 88.3084174 84.0688848 94.2526552 84.0688848 104.03385 84.0688848 113.389269 84.0688848"></polygon>
            </g>
        </g>
    </g>
</svg>